<svg width="134" height="44" viewBox="0 0 134 44" fill="none" xmlns="http://www.w3.org/2000/svg">
<path d="M17.2622 0.0446777H18.437C22.5157 0.134292 26.5279 1.79216 29.4096 4.72703C28.3456 5.82481 27.2594 6.87777 26.2176 7.97555C24.5994 6.49691 22.6487 5.35433 20.5207 4.95106C17.373 4.27896 13.9815 4.88385 11.3437 6.69855C8.46203 8.60285 6.51136 11.829 6.0902 15.2791C5.6247 18.6845 6.57786 22.269 8.77237 24.9127C10.8782 27.4891 14.0924 29.1021 17.4174 29.2142C20.5207 29.3934 23.7571 28.43 26.0181 26.2345C27.7914 24.6886 28.6116 22.3363 28.8776 20.0511C25.1979 20.0511 21.5182 20.0735 17.8385 20.0511V15.4359H33.3331C34.1311 20.3871 32.9784 25.9656 29.2544 29.5054C26.7717 32.0146 23.3359 33.4932 19.8335 33.7845C16.442 34.1205 12.9397 33.4708 9.92503 31.813C6.31186 29.8639 3.43019 26.5705 2.01152 22.6947C0.681522 19.1325 0.659356 15.0999 1.90069 11.5153C3.03119 8.24439 5.20353 5.35433 7.99653 3.33801C10.6787 1.34409 13.9372 0.24631 17.2622 0.0446777Z" fill="white"/>
<path d="M106.151 1.20996H110.895V33.2022C109.321 33.2022 107.725 33.2246 106.151 33.1798C106.173 22.5381 106.151 11.8741 106.151 1.20996V1.20996Z" fill="white"/>
<path d="M43.8837 12.2996C46.8097 11.7395 49.9796 12.3668 52.3957 14.1366C54.5902 15.7049 56.1197 18.1693 56.5852 20.8577C57.1837 23.9717 56.4301 27.3771 54.4351 29.8414C52.2849 32.5971 48.7604 34.0757 45.3246 33.8517C42.1769 33.6724 39.1179 32.0818 37.2559 29.483C35.15 26.6153 34.6402 22.6723 35.7929 19.3118C36.9455 15.7049 40.204 12.9493 43.8837 12.2996V12.2996ZM44.5487 16.5562C43.3517 16.8699 42.2434 17.5644 41.4454 18.5501C39.2952 21.1489 39.4282 25.3832 41.8 27.8027C43.1522 29.1917 45.1915 29.8414 47.0757 29.4606C48.8269 29.1469 50.3564 27.9596 51.1987 26.3913C52.6617 23.7253 52.2406 20.0511 50.0017 17.9676C48.5609 16.6234 46.4551 16.0633 44.5487 16.5562Z" fill="white"/>
<path d="M67.3787 12.2995C70.7259 11.6498 74.3834 12.5908 76.8882 14.9655C80.9669 18.6621 81.4102 25.5849 77.9301 29.8416C75.8242 32.53 72.4105 34.0086 69.0412 33.8518C65.827 33.7622 62.6572 32.1491 60.7509 29.4831C58.6007 26.5482 58.1352 22.5156 59.3543 19.0878C60.5735 15.5928 63.7655 12.9268 67.3787 12.2995V12.2995ZM68.0437 16.5562C66.8467 16.8698 65.7384 17.5644 64.9404 18.5277C62.8124 21.0817 62.901 25.2488 65.1842 27.6908C66.5364 29.147 68.6422 29.864 70.5929 29.4607C72.3219 29.1246 73.8735 27.9596 74.7159 26.3914C76.1567 23.703 75.7356 20.0288 73.4745 17.9452C72.0337 16.601 69.9279 16.0633 68.0437 16.5562Z" fill="white"/>
<path d="M87.3091 13.5989C89.8583 11.9858 93.2498 11.5377 95.9985 12.9268C96.863 13.3076 97.5723 13.9573 98.2595 14.607C98.2817 14.0021 98.2595 13.3748 98.2817 12.7475C99.7668 12.7699 101.252 12.7475 102.759 12.7699V32.5299C102.737 35.5096 101.984 38.6685 99.8555 40.8416C97.528 43.2388 93.9592 43.9781 90.745 43.4852C87.3091 42.9699 84.3166 40.4383 82.9866 37.2346C84.3166 36.5849 85.7131 36.0696 87.0875 35.4647C87.8633 37.3018 89.4371 38.8701 91.41 39.2285C93.3828 39.587 95.666 39.0941 96.9517 37.4363C98.326 35.7336 98.326 33.4036 98.2595 31.3201C97.2398 32.3282 96.065 33.2244 94.6463 33.5604C91.5651 34.4342 88.1736 33.3588 85.8018 31.2529C83.4078 29.1469 81.9891 25.8984 82.1221 22.6723C82.1886 19.0205 84.228 15.5032 87.3091 13.5989V13.5989ZM91.8977 16.4665C90.5455 16.6906 89.282 17.4523 88.4175 18.5053C86.3338 21.0145 86.3338 25.0247 88.4396 27.4891C89.6366 28.9453 91.5651 29.7518 93.4272 29.5502C95.1783 29.371 96.7965 28.2508 97.661 26.705C99.124 24.0837 98.8802 20.5216 96.9073 18.2364C95.6882 16.825 93.7375 16.1305 91.8977 16.4665V16.4665Z" fill="white"/>
<path d="M116.588 14.7418C119.248 12.2326 123.349 11.3812 126.763 12.703C129.999 13.9352 132.06 17.0493 133.102 20.2531C128.292 22.2694 123.504 24.2633 118.694 26.2796C119.359 27.5566 120.378 28.7216 121.753 29.1921C123.681 29.8866 125.987 29.6402 127.605 28.3407C128.248 27.8479 128.758 27.1982 129.245 26.5709C130.464 27.3998 131.684 28.2063 132.903 29.0353C131.174 31.6565 128.27 33.4936 125.144 33.7848C121.686 34.2105 118.007 32.8663 115.768 30.133C112.088 25.8315 112.443 18.6176 116.588 14.7418V14.7418ZM118.96 18.8864C118.206 19.9842 117.896 21.3284 117.918 22.6502C121.132 21.306 124.346 19.9618 127.561 18.5952C127.029 17.3406 125.743 16.5789 124.435 16.3772C122.329 15.9964 120.135 17.139 118.96 18.8864V18.8864Z" fill="white"/>
</svg>
