<svg width="130" height="44" viewBox="0 0 130 44" fill="none" xmlns="http://www.w3.org/2000/svg">
<path d="M123.54 8.34538H117.919V0.475098H105.575L99.8982 8.34538H89.8107L86.4378 11.7184V8.34538H78.5675V0.475098H53.8323V8.34538H19.0344L13.3566 0.475098H0.989014V27.4589L16.7296 43.1995H32.4701V38.7022L36.9674 43.1995H67.3242V38.7022L71.8215 43.1995H86.4378V38.7022L90.9351 43.1995H119.043L129.162 33.0805V13.967L123.54 8.34538ZM20.1025 19.5886H12.2323V21.8373H20.1025V30.8319H7.73497L3.23766 26.3346V2.72375H12.2323V10.594H20.1025V19.5886ZM53.8323 30.8319H26.8485L22.3512 26.3346V10.594H31.3458V21.8373H33.5945V10.594H42.5891V21.8373H44.8377V10.594H53.8323V30.8319ZM65.0756 30.8319H56.081V10.594H65.0756V30.8319ZM65.0756 8.34538H56.081V2.72375H65.0756V8.34538ZM84.1891 19.5886H76.3188V21.8373H84.1891V30.8319H71.8215L67.3242 26.3346V2.72375H76.3188V10.594H84.1891V19.5886ZM104.427 19.5886H95.4324V21.8373H104.427V30.8319H90.9351L86.4378 26.3346V15.0913L90.9351 10.594H104.427V19.5886ZM126.913 30.8319H117.919V19.5886H115.67V30.8319H106.676V2.72375H115.67V10.594H122.416L126.913 15.0913V30.8319Z" fill="white"/>
</svg>
