<svg width="160" height="41" viewBox="0 0 160 41" fill="none" xmlns="http://www.w3.org/2000/svg">
<path d="M51.8275 16.4663C51.8275 13.6049 49.045 10.5658 44.23 10.5658C38.8229 10.5658 32.883 14.5324 31.9752 22.4457C31.0477 30.4379 36.0207 33.99 41.0331 33.99C46.0455 33.99 48.6701 32.0363 51.3539 29.4315C49.045 26.5306 46.0652 27.8725 45.4929 28.1685C44.8614 28.4842 44.0523 28.9184 42.3947 28.9184C40.4608 28.9184 38.4874 28.0501 38.4874 24.4388C50.8803 23.2153 51.8275 19.3277 51.8275 16.4663ZM45.6903 16.9399C45.6113 17.8279 45.2561 19.3474 38.9807 20.196C40.3029 15.4993 42.8288 15.1441 43.9931 15.1441C45.0785 15.1441 45.7692 15.9927 45.6903 16.9399ZM24.6934 17.7095C24.6934 17.7095 22.0293 26.0767 21.8122 26.7674C21.7333 26.057 19.7796 11.0395 19.7796 11.0395C15.2409 11.0395 12.8136 14.2758 11.5309 17.6898C11.5309 17.6898 8.29452 26.0767 8.01824 26.7871C7.99851 26.1359 7.5249 17.7885 7.5249 17.7885C7.24862 13.6049 3.42024 11.0592 0.322021 11.0592L4.07146 33.8124C8.82733 33.7927 11.3927 30.576 12.7346 27.1621C12.7346 27.1621 15.5961 19.7618 15.7145 19.4264C15.7342 19.7421 17.7668 33.8124 17.7668 33.8124C22.5424 33.8124 25.1078 30.7931 26.4892 27.4975L33.179 11.0592C28.4626 11.0592 25.9761 14.2758 24.6934 17.7095ZM69.3512 10.5264C66.4109 10.5264 64.1612 12.1248 62.2667 14.4732V14.4534L63.9639 0.777832C60.0565 0.777832 56.8794 4.17206 56.2676 9.22394L53.3076 33.6348C55.5572 33.6348 57.945 32.9836 59.2277 31.3259C60.3723 32.806 62.0891 33.99 64.6348 33.99C71.2259 33.99 75.745 26.3332 75.745 19.1501C75.7055 12.5984 72.5284 10.5264 69.3512 10.5264ZM68.7395 22.2681C68.0488 26.274 65.8188 28.9973 63.6678 28.9973C61.4971 28.9973 60.5696 28.0304 60.5696 28.0304C60.984 24.5177 61.2406 22.3667 62.0299 20.5117C62.8193 18.6567 64.694 15.6967 66.6477 15.6967C68.5619 15.6967 69.4302 18.2423 68.7395 22.2681ZM92.2031 11.0592H87.6051L87.6248 10.8224C87.9405 7.82284 88.651 6.24412 90.9993 5.98758C92.5978 5.82971 93.3082 5.00089 93.4858 4.09313C93.6239 3.38271 94.0581 0.915969 94.0581 0.915969C84.8226 0.856768 81.9217 4.84302 81.1718 10.9211L81.1521 11.0592H81.0534C79.5536 11.0592 77.896 12.7563 77.6197 14.9073L77.5211 15.6967H80.5995L78.0144 37.0487L77.225 40.8771C77.3237 40.8771 77.4421 40.8969 77.5408 40.8969C81.8625 40.739 84.6253 37.325 85.237 32.3718L87.2499 15.6967H88.6904C90.1113 15.6967 91.7689 14.2758 92.0649 11.9078L92.2031 11.0592ZM116.121 10.6645C110.812 10.6645 105.8 14.5718 104.26 20.7091C102.721 26.8463 105.05 34.1084 112.864 34.1084C120.659 34.1084 125.159 26.5503 125.159 20.2552C125.159 13.9995 120.916 10.6645 116.121 10.6645ZM118.272 22.0707C117.995 24.8532 116.772 29.0762 113.417 29.0762C110.043 29.0762 110.516 24.1428 110.852 21.7944C111.207 19.2882 112.608 15.7164 115.627 15.7164C118.331 15.7164 118.587 18.933 118.272 22.0707ZM151.385 17.7095C151.385 17.7095 148.721 26.0767 148.504 26.7674C148.425 26.057 146.471 11.0395 146.471 11.0395C141.933 11.0395 139.505 14.2758 138.223 17.6898C138.223 17.6898 134.986 26.0767 134.71 26.7871C134.69 26.1359 134.217 17.7885 134.217 17.7885C133.94 13.6049 130.112 11.0592 127.014 11.0592L130.743 33.8124C135.499 33.7927 138.065 30.576 139.407 27.1621C139.407 27.1621 142.268 19.7618 142.367 19.4264C142.406 19.7421 144.419 33.8124 144.419 33.8124C149.195 33.8124 151.76 30.7931 153.141 27.4975L159.831 11.0592C155.134 11.0592 152.648 14.2758 151.385 17.7095ZM96.5445 0.915969L92.6767 32.1153L91.8873 35.9634C91.986 35.9634 92.1044 35.9831 92.2031 35.9831C96.3669 35.9239 99.327 32.2731 99.8796 27.6751L102.109 9.77649C102.78 4.3102 99.5244 0.915969 96.5445 0.915969Z" fill="white"/>
</svg>
