<svg width="150" height="34" viewBox="0 0 150 34" fill="none" xmlns="http://www.w3.org/2000/svg">
<path d="M25.6761 33.42L15.9186 33.2396C12.7593 33.1768 9.59219 33.3024 6.49495 32.6512C1.78312 31.6784 1.44933 26.9084 1.10002 22.9072C0.618744 17.2821 0.805044 11.555 1.71326 5.97689C2.22558 2.84658 4.24383 0.979377 7.36435 0.775397C17.8981 0.037931 28.5016 0.12423 39.0121 0.469427C40.1221 0.500809 41.2399 0.673407 42.3344 0.869542C47.7371 1.82668 47.8691 7.23215 48.2184 11.7825C48.5677 16.3799 48.4202 21.0008 47.7526 25.5668C47.217 29.3483 46.1924 32.5178 41.8687 32.8238C36.4504 33.2239 31.1564 33.5456 25.7227 33.4436C25.7227 33.42 25.6916 33.42 25.6761 33.42V33.42ZM19.9396 23.8487C24.0227 21.4794 28.0281 19.1493 32.0879 16.7957C27.9971 14.4264 23.9994 12.0963 19.9396 9.74267V23.8487Z" fill="white"/>
<path d="M126.483 29.1208C126.297 29.8896 126.134 30.4937 125.971 31.1371H122.152V1.36353H126.607V12.3472C126.84 12.049 126.957 11.9235 127.057 11.7901C127.818 10.731 128.804 10.0406 130.077 9.77386C132.103 9.37374 133.834 10.276 134.447 12.2452C134.843 13.4691 135.099 14.7793 135.13 16.0581C135.193 19.3453 135.146 22.6247 135.03 25.912C134.983 26.9162 134.68 27.944 134.3 28.8854C133.05 31.9922 128.967 32.4629 126.941 29.7719C126.817 29.6072 126.7 29.4267 126.483 29.1208V29.1208ZM126.7 20.9301V26.3749C126.7 27.2614 127.166 27.8027 128.043 28.0067C128.905 28.2107 129.604 27.8733 129.953 27.0653C130.1 26.7279 130.248 26.3749 130.256 26.0218C130.341 22.6953 130.419 19.3689 130.442 16.0345C130.442 15.4148 130.294 14.7714 130.108 14.1673C129.759 13.0768 128.796 12.7551 127.849 13.3906C127.135 13.877 126.7 14.5674 126.7 15.4854V20.9301ZM114.591 10.1975H119.256V31.1527H115.616C115.484 30.3604 115.352 29.5444 115.196 28.5873C114.948 28.956 114.801 29.1914 114.645 29.4267C113.434 31.192 111.719 31.7961 109.693 31.4744C107.962 31.192 106.922 29.8426 106.689 27.6301C106.619 26.9711 106.588 26.3043 106.588 25.6452C106.572 20.7418 106.588 15.8227 106.588 10.9193V10.1818H111.307V11.037C111.307 15.7756 111.292 20.5065 111.323 25.2451C111.323 25.9198 111.393 26.6181 111.509 27.2928C111.641 27.9832 112.138 28.2342 112.806 28.1872C113.885 28.1009 114.63 27.2928 114.63 26.2101V11.1233C114.591 10.8173 114.591 10.5349 114.591 10.1975V10.1975ZM82.4698 10.1818H87.1583V11.0684C87.1583 15.7835 87.1428 20.4908 87.1738 25.1902C87.1738 25.8649 87.2359 26.5632 87.3756 27.2222C87.5542 27.9989 88.0044 28.2499 88.7729 28.1479C89.8364 27.9989 90.4806 27.2536 90.4884 26.163V11.1547V10.2132H95.1537V31.1527H91.5286C91.3966 30.376 91.2647 29.5758 91.0939 28.5637C90.861 28.9168 90.729 29.1208 90.5971 29.3326C89.3861 31.1292 87.6861 31.7882 85.6136 31.4666C83.9524 31.2155 82.9355 29.9759 82.625 27.944C82.5396 27.3085 82.4775 26.6808 82.4775 26.0454C82.462 20.9536 82.462 15.8384 82.462 10.7467L82.4698 10.1818ZM80.0634 21.3695C80.0479 22.0756 80.0013 22.7816 79.9625 23.4877C79.7839 25.606 79.6985 28.6108 78.0063 30.1564C76.9273 31.1292 75.5611 31.4823 74.1484 31.5293C73.5196 31.545 72.8831 31.545 72.2543 31.4587C69.2813 31.0037 67.8996 29.6778 67.4028 26.3749C66.8361 22.562 66.7895 18.6863 67.4649 14.8734C68.1635 10.9271 70.5699 9.53065 74.3114 9.78955C77.8045 10.0406 79.3648 12.355 79.7762 15.6501C80.0013 17.5409 80.11 19.4552 80.0634 21.3695V21.3695ZM75.3127 20.6477C75.3127 19.3061 75.3438 17.9567 75.2972 16.6151C75.2662 15.8384 75.1653 15.0539 75.0022 14.285C74.8159 13.3985 74.257 12.9748 73.5584 12.9905C72.8753 13.0062 72.394 13.4298 72.1456 14.2536C72.0603 14.5596 71.9671 14.8734 71.9671 15.1794C71.9671 17.282 71.9516 19.3924 71.9361 21.495C71.9205 23.4563 71.6721 25.5119 72.2854 27.3869C72.4717 27.9596 72.9529 28.2735 73.5817 28.2735C74.1949 28.2735 74.5986 27.9675 74.8237 27.4183C75.0022 26.9947 75.1575 26.5318 75.1575 26.0767C75.2118 24.2723 75.3127 22.46 75.3127 20.6477ZM60.5563 16.7014C60.9677 14.6694 61.3558 12.6845 61.7827 10.6918C62.3183 8.1577 62.9161 5.62361 63.4439 3.08168C63.5759 2.46189 63.8243 2.31283 64.4064 2.32852C65.6562 2.37559 66.9293 2.34421 68.2644 2.34421C67.8297 3.96037 67.4028 5.49808 66.9836 7.01226C65.6562 11.7666 64.3288 16.5367 63.017 21.3067C62.9161 21.6754 62.8695 22.0755 62.8695 22.4678C62.854 25.0725 62.8695 27.6694 62.8695 30.2741V31.1214H58.3129C58.2974 30.886 58.2663 30.6506 58.2663 30.4153C58.2663 28.9403 58.1499 27.4575 58.2818 25.9983C58.6156 22.4914 57.5134 19.2669 56.6207 16.0032C55.4408 11.6882 54.2454 7.35746 53.0655 3.04245C53.0034 2.83847 52.9801 2.6188 52.918 2.36774H57.5677C58.5458 7.12994 59.5316 11.8921 60.5563 16.7014ZM149.708 22.1697H141.853C141.938 23.7623 141.969 25.2765 142.132 26.775C142.249 27.8184 142.815 28.2656 143.708 28.2735C144.639 28.2892 145.183 27.8184 145.4 26.7828C145.47 26.4455 145.517 26.1081 145.548 25.7629C145.579 25.4569 145.594 25.1274 145.618 24.6881C146.945 24.7587 148.241 24.8372 149.522 24.8921C150.267 27.128 148.924 29.9995 146.666 30.886C144.888 31.5921 143.064 31.5921 141.247 31.0508C139.904 30.6506 138.903 29.7876 138.453 28.4618C138.034 27.2222 137.638 25.9277 137.552 24.6332C137.319 21.4401 137.234 18.2156 137.715 15.0146C137.801 14.4811 137.948 13.9712 138.111 13.4534C138.763 11.3194 140.184 10.0092 142.381 9.78955C143.576 9.67187 144.81 9.71894 145.99 9.92293C147.9 10.2603 148.917 11.6489 149.359 13.4691C149.561 14.3242 149.708 15.2029 149.739 16.0738C149.747 18.0744 149.708 20.0593 149.708 22.1697ZM145.245 19.4159C145.245 17.839 145.261 16.3562 145.229 14.8656C145.229 14.5125 145.097 14.1438 144.966 13.8064C144.702 13.1474 144.15 12.967 143.491 12.967C142.831 12.967 142.412 13.3043 142.249 13.9084C141.752 15.7207 141.915 17.5723 141.93 19.4316C143.118 19.4159 144.197 19.4159 145.245 19.4159V19.4159Z" fill="white"/>
<path d="M98.7551 6.18874H94.1365V2.40723H107.923V6.16521H103.335V31.1217H98.7629L98.7551 6.18874Z" fill="white"/>
</svg>
