<svg width="168" height="42" viewBox="0 0 168 42" fill="none" xmlns="http://www.w3.org/2000/svg">
<path d="M18.8373 0.681511C16.6768 0.926224 13.436 1.94273 11.5921 2.95923C6.63783 5.65107 3.2853 9.84885 1.60903 15.4396C1.27378 16.5314 0.88265 19.5056 0.901275 20.8986C0.901275 22.1222 1.27378 25.1152 1.49728 25.8305C1.60903 26.1693 1.85116 26.9788 2.05604 27.6C2.39129 28.6541 4.01168 31.9672 4.29105 32.1931C4.34693 32.2495 4.64493 32.626 4.92431 33.059C5.61344 34.0943 7.42008 35.9391 8.77972 36.9932C9.82273 37.8026 12.7655 39.5156 13.138 39.5345C13.2311 39.5345 13.2498 38.8191 13.1939 37.8779C13.0635 35.7885 13.4546 32.946 14.2928 30.0471C14.4418 29.5577 14.5535 28.9177 14.5535 28.6353C14.5535 28.3529 14.628 28.0518 14.7211 27.9576C14.8143 27.8447 14.9819 27.2988 15.075 26.7341C15.1868 26.1693 15.373 25.3034 15.5034 24.814C15.6897 24.0799 15.671 23.7975 15.4103 23.0069C15.0378 21.8022 15.0191 19.8444 15.3917 18.9032C16.267 16.6632 17.2355 15.8161 18.8746 15.8161C20.8488 15.8161 21.7987 17.322 21.4262 19.8444C21.2586 20.9927 20.7929 22.7998 20.4949 23.3646C20.4204 23.534 20.2901 24.0046 20.2342 24.3999C20.1597 24.814 20.0107 25.3976 19.9176 25.7176C19.6568 26.4517 20.1597 27.8823 20.8302 28.4282C21.4635 28.9365 22.7858 29.0871 23.9965 28.8047C24.8532 28.6165 25.2071 28.3906 26.1011 27.5247C27.1628 26.4705 27.9636 25.247 27.9636 24.6634C27.9636 24.494 28.0568 24.2681 28.1685 24.1552C28.69 23.6281 28.9694 19.5244 28.5783 17.7926C28.1499 15.8914 26.8275 14.0278 25.114 12.936C23.4005 11.8254 19.8617 11.5054 17.6825 12.2583C16.1553 12.7854 14.7956 13.6701 13.9203 14.7055C13.138 15.6278 12.3185 17.1338 12.3185 17.6609C12.3185 17.8491 12.2254 18.0938 12.1136 18.2067C12.0019 18.3197 11.8715 19.035 11.8156 19.8068C11.7225 20.9551 11.797 21.4821 12.1322 22.6116C12.3558 23.3834 12.7655 24.2869 13.0076 24.6258C13.5105 25.3034 13.5105 25.567 13.0449 27.3741C12.9145 27.8635 12.691 28.3153 12.5606 28.3718C11.3872 28.8235 9.00322 25.9811 8.20234 23.1575C7.90434 22.0845 7.88571 18.2632 8.18371 17.1338C8.31409 16.6632 8.53759 16.0232 8.68659 15.6843C8.83559 15.3643 8.96597 15.0443 8.96597 14.969C8.96597 14.8937 9.33847 14.2537 9.8041 13.5572C12.2254 9.86767 16.1553 7.90997 21.1282 7.90997C22.2643 7.90997 23.4377 7.98526 23.7543 8.07938C26.3246 8.88882 27.0138 9.15236 28.0195 9.75473C29.9752 10.9406 31.3907 12.5595 32.8062 15.2702C32.8993 15.4396 33.0297 15.8914 33.0856 16.2679C33.1601 16.6443 33.2904 17.002 33.3836 17.0585C33.4767 17.1149 33.5512 18.3385 33.5512 19.788C33.5512 22.4045 33.3649 23.4587 32.5827 25.6046C31.7073 27.9576 29.4536 30.5554 27.4049 31.5719C26.2315 32.1366 24.0337 32.7578 23.1583 32.7578C21.985 32.7578 19.6754 31.7789 19.0422 30.9883C18.7442 30.6307 18.4648 30.7624 18.4648 31.2707C18.4648 31.4589 18.3903 31.7789 18.2786 31.9672C18.1854 32.1366 18.0178 32.6637 17.9247 33.1343C17.3845 35.619 16.6209 37.6332 15.4475 39.5156C15.0936 40.0992 15.3917 40.438 16.3602 40.5698C16.8444 40.6451 17.4963 40.7768 17.7943 40.871C18.5393 41.1157 22.581 41.078 23.9406 40.8333C25.1699 40.6074 27.1628 40.0427 28.0568 39.6662C33.6816 37.332 37.9467 32.5884 39.7906 26.5458C40.7777 23.3269 40.8336 19.5809 39.9396 15.8161C39.6416 14.5925 39.5485 14.3102 38.7476 12.4277C37.5928 9.67943 34.9853 6.46051 32.3405 4.48398C30.0683 2.78981 27.8333 1.81096 24.3504 0.963872C23.3818 0.737983 19.9362 0.549742 18.8373 0.681511ZM68.5106 7.47701C67.7842 7.58996 66.6295 8.7947 66.3315 9.7359C66.0148 10.7712 66.3315 11.8818 67.2255 12.7478C69.1997 14.6866 72.6268 12.8607 72.1984 10.0747C71.9376 8.30527 70.3359 7.17583 68.5106 7.47701ZM48.2092 8.58763C48.0416 8.77587 48.0416 31.4777 48.2278 31.7413C48.3209 31.8919 49.1218 31.9483 50.6863 31.9295L53.0145 31.9107L53.1076 28.0894C53.1821 24.9834 53.2566 24.2305 53.4801 24.0987C53.6291 24.0046 54.8956 23.9105 56.2925 23.9105C59.347 23.9105 60.6322 23.6846 62.0291 22.9316C63.8543 21.9339 64.916 20.5033 65.4933 18.2256C65.8472 16.7949 65.8472 15.7596 65.4747 14.2913C65.1395 12.9736 64.9905 12.6536 64.1896 11.5807C63.2024 10.2442 62.1967 9.51001 60.5577 8.92647C59.645 8.62528 58.8814 8.56881 53.9457 8.51234C50.8726 8.47469 48.2837 8.51234 48.2092 8.58763ZM58.4344 13.2748C59.6823 13.6701 60.2969 14.2349 60.5763 15.2514C60.9302 16.5879 60.6694 17.8303 59.8872 18.5832C59.0304 19.3927 58.2668 19.5809 55.771 19.5809C54.132 19.5809 53.6291 19.5244 53.4056 19.2797C53.1635 19.0538 53.1076 18.5079 53.1076 16.362C53.1076 12.9736 53.089 12.9925 55.6779 12.9925C56.7954 12.9925 57.8757 13.1054 58.4344 13.2748ZM91.1029 12.1642C91.1029 13.4631 91.0098 14.6866 90.9167 14.8937C90.7863 15.1384 90.5256 15.2514 90.0786 15.2514C89.7433 15.2514 89.4267 15.3267 89.3894 15.4396C89.3708 15.5337 89.3708 16.1926 89.4267 16.8891C89.5198 18.1315 89.5384 18.1503 90.0972 18.282C90.4138 18.3385 90.7677 18.4515 90.8794 18.5268C91.0471 18.6209 91.1029 20.108 91.1029 23.8728C91.1029 28.9365 91.1216 29.1247 91.5313 29.8777C92.3881 31.4777 93.7291 32.0425 96.4484 31.9672L98.2736 31.9107L98.3295 30.0848L98.3854 28.24H97.9198C97.212 28.24 96.169 27.6753 96.0572 27.2235C96.0014 26.9976 95.9455 25.0022 95.9455 22.7622C95.9455 19.675 96.0014 18.6397 96.1876 18.4891C96.318 18.3762 96.8395 18.2632 97.3424 18.2256L98.2736 18.1691V15.3455L97.2492 15.289C96.6905 15.2514 96.169 15.1196 96.0945 15.0067C96.02 14.8749 95.9455 13.6513 95.9455 12.2772V9.79238H91.1029V12.1642ZM160.333 9.90532C160.258 9.98062 160.202 11.1665 160.202 12.5407C160.202 15.2137 160.184 15.2514 159.159 15.2514C158.694 15.2514 158.694 15.2702 158.75 16.7008C158.805 18.1315 158.824 18.1691 159.308 18.2256C159.569 18.2632 159.886 18.395 159.979 18.5079C160.091 18.6397 160.202 20.9174 160.258 23.8163C160.314 26.6023 160.407 29.1436 160.482 29.4447C160.705 30.273 161.86 31.3271 162.959 31.6848C164.188 32.0989 167.317 32.1366 167.634 31.7413C167.783 31.5719 167.839 30.8942 167.801 29.9153L167.745 28.3341L167.094 28.2212C166.386 28.1082 165.585 27.7317 165.38 27.4117C165.306 27.2988 165.231 25.247 165.231 22.8563C165.231 17.9432 165.119 18.2632 166.74 18.2632C167.801 18.2632 167.894 18.075 167.801 16.362L167.745 15.3455L166.535 15.2514L165.324 15.1572L165.231 12.5219L165.138 9.8865L162.791 9.83002C161.506 9.8112 160.407 9.84885 160.333 9.90532ZM81.8835 14.7996C80.9708 15.0443 79.9092 15.6655 79.2015 16.3996C78.3447 17.3032 78.1212 17.2467 78.0281 16.0984L77.9722 15.3455H73.3159V31.9107L75.6627 31.9483C77.9722 32.0048 78.0281 31.986 78.1398 31.5719C78.1957 31.346 78.2516 28.9553 78.2516 26.2446C78.2516 20.8798 78.2702 20.7292 79.3691 19.675C79.8533 19.2044 80.1141 19.1103 81.1571 19.0538L82.3677 18.9785L83.0941 19.7503C83.9509 20.6539 83.8578 19.788 83.9323 27.5812C83.9509 29.6518 83.9695 31.4777 83.9881 31.666C84.0254 31.9295 84.3234 31.9672 86.4094 31.9295L88.7748 31.9107V18.6962L88.2347 17.6232C87.3034 15.7596 85.8693 14.8749 83.6715 14.7619C82.8892 14.7431 82.0884 14.7431 81.8835 14.7996ZM105.165 14.7996C103.153 15.3455 102.185 15.8914 100.937 17.1338C99.2608 18.8468 98.4971 20.8421 98.4971 23.534C98.5158 28.2588 101.44 31.7601 105.761 32.1742C109.449 32.5319 112.298 31.4401 114.124 28.9741C114.384 28.6165 114.943 27.4682 114.943 27.2611C114.943 27.1858 113.863 27.1105 112.559 27.1105H110.175L109.616 27.6941C108.964 28.3718 108.052 28.8047 107.214 28.8047C106.376 28.8047 105.09 28.2023 104.494 27.5623C104.047 27.0541 103.396 25.5858 103.396 25.0775C103.396 24.9081 104.755 24.8517 109.132 24.8517C112.28 24.8517 114.943 24.7764 115.074 24.7011C115.353 24.5128 115.092 21.5198 114.682 20.428C113.844 18.1503 112.261 16.2302 110.659 15.5525C110.194 15.3643 109.654 15.1196 109.467 15.0255C109.076 14.8184 105.761 14.649 105.165 14.7996ZM108.797 18.9221C109.523 19.4303 110.156 20.6351 110.063 21.3127C110.007 21.7457 109.97 21.7457 106.823 21.8022C103.191 21.8586 103.172 21.8398 103.749 20.4845C104.159 19.5433 104.979 18.6962 105.742 18.4515C106.618 18.1691 108.033 18.395 108.797 18.9221ZM132.73 14.7996C130.57 15.3831 129.061 16.3432 127.888 17.8303C127.422 18.4326 127.05 18.9974 127.05 19.1103C127.05 19.2044 126.919 19.5433 126.752 19.8633C126.584 20.1645 126.342 21.1057 126.211 21.9527C125.559 25.9811 127.348 29.7459 130.7 31.4401L131.985 32.0989H134.686C137.48 32.0989 137.722 32.0425 139.435 31.1201C140.683 30.4424 142.732 27.807 142.415 27.28C142.341 27.1858 141.279 27.1105 140.031 27.1105H137.74L137.275 27.6564C135.412 29.7836 131.929 28.6918 131.184 25.7364C131.073 25.3411 131.073 25.0022 131.166 24.927C131.259 24.8705 133.922 24.8328 137.107 24.8517C141.652 24.8517 142.881 24.814 142.9 24.6258C143.067 22.2728 141.95 18.7903 140.553 17.2844C139.77 16.4373 138.411 15.4961 137.74 15.3267C137.442 15.2514 137.107 15.1196 136.977 15.0255C136.716 14.8184 133.308 14.649 132.73 14.7996ZM135.636 18.4703C136.474 18.7715 137.442 19.8256 137.591 20.6351C137.815 21.8586 137.833 21.8586 134.369 21.8022C131.259 21.7457 131.24 21.7457 131.184 21.3127C131.11 20.7856 131.762 19.4868 132.32 18.9974C133.121 18.3197 134.518 18.0938 135.636 18.4703ZM148.934 14.7996C145.116 15.722 143.738 17.0961 143.719 19.9574C143.719 23.0445 145.246 24.3434 149.772 25.1528C152.883 25.6987 153.777 26.1882 153.739 27.3741C153.721 28.2212 153.143 28.7671 151.989 29.0118C150.536 29.3318 149.4 28.9741 148.487 27.9388L147.761 27.1105H145.507C143.682 27.1105 143.253 27.167 143.253 27.3741C143.253 27.92 143.998 29.3506 144.613 30.0659C145.19 30.6871 145.637 30.9883 147.388 31.8354C147.556 31.9295 148.468 32.0801 149.381 32.1931C151.076 32.4001 154.019 32.2119 154.764 31.8354C154.931 31.7601 155.416 31.5154 155.825 31.3271C156.887 30.8189 157.893 29.6706 158.265 28.5788C158.675 27.3364 158.563 25.6046 157.986 24.3999C157.297 22.9881 155.472 21.9716 152.752 21.4821C149.251 20.8609 149.195 20.8421 148.636 20.2962C147.966 19.5997 147.966 19.355 148.636 18.6021C149.176 17.9997 149.213 17.9809 150.703 17.9809C152.193 17.9809 152.231 17.9997 152.771 18.6021C153.069 18.9409 153.311 19.3362 153.311 19.4868C153.311 19.7127 153.702 19.7691 155.639 19.7691C158.209 19.7691 158.135 19.8256 157.688 18.4891C156.868 16.1173 154.764 14.9125 151.262 14.7808C150.182 14.7431 149.139 14.7431 148.934 14.7996ZM124.163 15.1949C123.343 15.4773 122.207 16.4185 121.853 17.0961C121.499 17.7738 121.183 17.4914 121.089 16.362L120.996 15.3455H116.34L116.284 23.2516C116.266 27.6 116.284 31.346 116.34 31.5907C116.433 32.0048 116.489 32.0048 118.724 31.9672C120.009 31.9483 121.052 31.8354 121.127 31.7225C121.201 31.6283 121.276 29.633 121.276 27.2988C121.276 23.6093 121.313 22.9504 121.63 22.1222C122.281 20.4092 123.678 19.3927 125.429 19.3927C125.913 19.3927 126.118 19.2985 126.174 19.0538C126.304 18.5079 126.323 15.9667 126.211 15.402C126.1 14.9502 126.007 14.8749 125.504 14.8937C125.168 14.9125 124.572 15.0443 124.163 15.1949ZM66.7971 15.4773C66.7412 15.609 66.7226 19.3174 66.7412 23.7222L66.7971 31.7225L69.0135 31.8166C70.3545 31.873 71.323 31.8354 71.472 31.7225C71.6769 31.5719 71.7328 29.9718 71.7328 23.5716C71.7514 19.2044 71.6955 15.5337 71.6396 15.4396C71.4534 15.1572 66.8902 15.1949 66.7971 15.4773Z" fill="white"/>
</svg>
