<svg width="138" height="47" viewBox="0 0 138 47" fill="none" xmlns="http://www.w3.org/2000/svg">
<path d="M1.88803 3.10008L10.3829 1.68945L17.9262 9.8908H57.3201V1.68945H81.4019L82.1675 9.8908H91.146V13.6492L95.3916 9.41179H107.342L112.259 1.68945L125.469 2.97603L124.256 10.2659H131.313L136.565 15.7119V34.8105H7.0534L1.88801 29.9057L1.88803 3.10008Z" fill="white"/>
<path d="M131.415 9.16483H125.388V0.727539H112.155L106.069 9.16483H95.2552L91.6392 12.7808V9.16483H83.2019V0.727539H56.6847V9.16483H19.3798L13.2929 0.727539H0.0343018V29.6554L16.9089 46.53H33.7835V41.7087L38.6048 46.53H71.1486V41.7087L75.9699 46.53H91.6392V41.7087L96.4605 46.53H126.594L137.442 35.682V15.1915L131.415 9.16483ZM20.5249 21.2181H12.0876V23.6288H20.5249V33.2714H7.26627L2.44496 28.4501V3.13819H12.0876V11.5755H20.5249V21.2181ZM56.6847 33.2714H27.7568L22.9355 28.4501V11.5755H32.5781V23.6288H34.9888V11.5755H44.6314V23.6288H47.0421V11.5755H56.6847V33.2714ZM68.738 33.2714H59.0953V11.5755H68.738V33.2714ZM68.738 9.16483H59.0953V3.13819H68.738V9.16483ZM89.2285 21.2181H80.7912V23.6288H89.2285V33.2714H75.9699L71.1486 28.4501V3.13819H80.7912V11.5755H89.2285V21.2181ZM110.924 21.2181H101.282V23.6288H110.924V33.2714H96.4605L91.6392 28.4501V16.3968L96.4605 11.5755H110.924V21.2181ZM135.031 33.2714H125.388V21.2181H122.978V33.2714H113.335V3.13819H122.978V11.5755H130.21L135.031 16.3968V33.2714Z" fill="#8E41FF"/>
</svg>
