<svg width="552" height="552" viewBox="0 0 552 552" fill="none" xmlns="http://www.w3.org/2000/svg">
<rect x="4" width="544" height="544" fill="#FFC224"/>
<mask id="mask0_98451_40836" style="mask-type:alpha" maskUnits="userSpaceOnUse" x="4" y="0" width="544" height="544">
<rect x="4" width="544" height="544" fill="#F1F0EE"/>
</mask>
<g mask="url(#mask0_98451_40836)">
<path d="M302.676 417.988L302.72 418.224L302.7 418.463L248.517 1075.22L248.382 1076.87H246.735H12.8055H11.2434L11.0334 1075.32L12.8055 1075.08C11.0334 1075.32 11.0332 1075.32 11.0329 1075.31L11.0316 1075.31L11.0267 1075.27L11.0076 1075.13C10.9909 1075 10.9661 1074.81 10.9338 1074.56C10.9021 1074.32 10.8631 1074.02 10.8174 1073.66C10.7699 1073.28 10.7152 1072.85 10.6538 1072.35C10.4124 1070.41 10.067 1067.52 9.64993 1063.78C8.81577 1056.29 7.69489 1045.34 6.54636 1031.51C4.24939 1003.85 1.84149 964.627 1.39621 918.393C0.505798 825.945 7.46082 705.363 38.8919 593.019C70.3962 480.414 132.968 421.077 187.748 389.924C215.119 374.358 240.519 365.842 259.086 361.215C268.37 358.902 275.95 357.56 281.218 356.796C283.852 356.414 285.909 356.176 287.313 356.034C288.014 355.963 288.553 355.915 288.919 355.885C289.102 355.87 289.241 355.86 289.337 355.853C289.385 355.85 289.421 355.847 289.446 355.845L289.476 355.844L289.484 355.843C289.487 355.843 289.489 355.843 289.6 357.628L289.489 355.843L291.068 355.744L291.358 357.3L302.676 417.988Z" fill="#FF4A60" stroke="#0B0B0B" stroke-width="3.57665" stroke-miterlimit="10"/>
<path d="M76.8996 542.622C75.0477 543.399 73.468 544.708 72.3599 546.383C71.2518 548.058 70.665 550.024 70.6742 552.032C70.6834 554.041 71.288 556.001 72.4113 557.666C73.5347 559.331 75.1266 560.625 76.9855 561.386C78.8444 562.146 80.8868 562.338 82.8549 561.938C84.8229 561.537 86.6279 560.562 88.0418 559.136C89.4557 557.709 90.4154 555.896 90.7987 553.924C91.1821 551.953 90.9719 549.912 90.1955 548.06C89.6797 546.83 88.9269 545.713 87.9796 544.774C87.0322 543.835 85.9089 543.091 84.6742 542.586C83.4394 542.081 82.1173 541.825 80.7833 541.831C79.4494 541.837 78.1296 542.106 76.8996 542.622Z" fill="#FF4A60"/>
<path d="M80.8409 1075.7V574.134C80.8409 457.897 182.47 363.663 307.837 363.663C433.203 363.663 534.826 457.897 534.826 574.134V1075.7H80.8409Z" fill="#FF4A60"/>
<path d="M307.837 363.663C433.203 363.663 534.826 457.897 534.826 574.134V1075.7H80.8409V574.134" stroke="#0B0B0B" stroke-width="3.57665" stroke-miterlimit="10"/>
<path d="M107.732 500.593C105.883 501.371 104.305 502.679 103.199 504.353C102.093 506.027 101.507 507.991 101.517 509.998C101.527 512.004 102.131 513.963 103.254 515.626C104.376 517.289 105.967 518.582 107.824 519.342C109.681 520.101 111.722 520.293 113.688 519.893C115.654 519.494 117.458 518.52 118.871 517.095C120.284 515.671 121.243 513.86 121.627 511.89C122.011 509.921 121.803 507.882 121.028 506.031C120.513 504.8 119.761 503.683 118.813 502.743C117.866 501.803 116.743 501.06 115.508 500.555C114.273 500.05 112.951 499.793 111.616 499.8C110.282 499.806 108.962 500.076 107.732 500.593V500.593Z" fill="#FFC224"/>
<path d="M191.253 518.185C189.402 518.963 187.824 520.272 186.717 521.948C185.61 523.623 185.024 525.589 185.034 527.597C185.044 529.605 185.649 531.565 186.773 533.229C187.896 534.893 189.488 536.187 191.347 536.947C193.205 537.707 195.248 537.898 197.215 537.498C199.183 537.097 200.988 536.122 202.401 534.696C203.815 533.27 204.774 531.457 205.158 529.486C205.542 527.515 205.332 525.475 204.556 523.623C204.041 522.391 203.288 521.273 202.34 520.333C201.393 519.393 200.269 518.649 199.033 518.144C197.798 517.638 196.474 517.382 195.139 517.389C193.804 517.396 192.484 517.667 191.253 518.185V518.185Z" fill="#FFC224"/>
<path d="M253.66 502.843C251.809 503.621 250.23 504.93 249.123 506.606C248.016 508.281 247.431 510.247 247.441 512.255C247.451 514.263 248.056 516.223 249.179 517.887C250.303 519.551 251.895 520.845 253.753 521.605C255.612 522.365 257.654 522.556 259.622 522.156C261.59 521.755 263.394 520.78 264.808 519.354C266.222 517.928 267.181 516.115 267.564 514.144C267.948 512.173 267.739 510.133 266.963 508.281C266.449 507.049 265.696 505.93 264.749 504.989C263.801 504.048 262.677 503.304 261.441 502.799C260.205 502.294 258.881 502.037 257.546 502.045C256.211 502.052 254.891 502.324 253.66 502.843V502.843Z" fill="#FFC224"/>
<path d="M213.611 434.065C211.762 434.843 210.186 436.153 209.081 437.827C207.975 439.501 207.391 441.465 207.402 443.471C207.413 445.477 208.018 447.435 209.14 449.098C210.263 450.76 211.853 452.053 213.71 452.812C215.567 453.571 217.607 453.762 219.573 453.363C221.539 452.963 223.342 451.989 224.755 450.565C226.168 449.141 227.127 447.33 227.511 445.361C227.895 443.392 227.687 441.354 226.914 439.503C225.871 437.018 223.883 435.048 221.388 434.029C218.893 433.009 216.096 433.022 213.611 434.065V434.065Z" fill="#FFC224"/>
<path d="M148.999 462.791C147.148 463.572 145.571 464.885 144.466 466.562C143.361 468.24 142.778 470.207 142.792 472.216C142.805 474.225 143.414 476.184 144.541 477.847C145.669 479.51 147.264 480.801 149.125 481.557C150.986 482.313 153.029 482.5 154.997 482.094C156.964 481.689 158.767 480.709 160.178 479.279C161.588 477.849 162.543 476.032 162.921 474.059C163.299 472.086 163.084 470.046 162.302 468.195C161.784 466.966 161.029 465.851 160.08 464.914C159.131 463.977 158.007 463.236 156.771 462.734C155.536 462.232 154.213 461.979 152.879 461.989C151.546 461.998 150.227 462.271 148.999 462.791V462.791Z" fill="#FFC224"/>
<path d="M325.124 475.89C323.272 476.667 321.692 477.976 320.583 479.651C319.475 481.326 318.889 483.292 318.898 485.301C318.907 487.309 319.512 489.269 320.635 490.934C321.759 492.599 323.35 493.894 325.209 494.654C327.068 495.414 329.111 495.606 331.079 495.206C333.047 494.805 334.852 493.83 336.266 492.404C337.68 490.978 338.639 489.164 339.022 487.193C339.406 485.221 339.196 483.18 338.419 481.328C337.904 480.098 337.15 478.981 336.203 478.042C335.256 477.103 334.133 476.36 332.898 475.855C331.663 475.35 330.341 475.093 329.007 475.099C327.673 475.105 326.354 475.374 325.124 475.89V475.89Z" fill="#FFC224"/>
<path d="M278.689 410.96C276.84 411.739 275.264 413.048 274.159 414.723C273.053 416.397 272.469 418.361 272.48 420.367C272.491 422.373 273.096 424.331 274.218 425.993C275.341 427.656 276.931 428.948 278.788 429.707C280.645 430.466 282.686 430.658 284.652 430.258C286.617 429.858 288.42 428.885 289.833 427.461C291.246 426.037 292.205 424.226 292.59 422.257C292.974 420.288 292.766 418.249 291.992 416.398C290.949 413.913 288.961 411.944 286.467 410.924C283.972 409.905 281.174 409.918 278.689 410.96V410.96Z" fill="#FFC224"/>
<path d="M359.79 537.251C357.941 538.03 356.365 539.339 355.26 541.013C354.154 542.687 353.57 544.652 353.581 546.658C353.592 548.664 354.196 550.622 355.319 552.284C356.442 553.946 358.032 555.239 359.889 555.998C361.746 556.757 363.786 556.949 365.752 556.549C367.718 556.149 369.521 555.176 370.934 553.751C372.347 552.327 373.306 550.516 373.69 548.547C374.074 546.578 373.866 544.54 373.093 542.689C372.577 541.458 371.823 540.341 370.875 539.401C369.928 538.461 368.804 537.717 367.568 537.212C366.333 536.707 365.01 536.451 363.675 536.457C362.34 536.464 361.02 536.734 359.79 537.251V537.251Z" fill="#FFC224"/>
<path d="M170.792 415.209C168.696 416.089 166.365 416.239 164.173 415.635C161.981 415.031 160.056 413.708 158.706 411.879C163.958 407.678 169.419 403.704 175.088 399.956C175.984 401.19 176.589 402.611 176.857 404.112C177.125 405.613 177.05 407.156 176.636 408.624C176.223 410.092 175.483 411.447 174.47 412.587C173.458 413.728 172.2 414.625 170.792 415.209Z" fill="#FFC224"/>
<path d="M228.129 390.487C226.386 391.231 224.468 391.471 222.596 391.178C220.723 390.886 218.97 390.072 217.538 388.831C216.105 387.59 215.051 385.971 214.494 384.159C213.938 382.347 213.902 380.415 214.391 378.584C219.482 376.49 224.655 374.506 229.93 372.793C231.428 373.821 232.622 375.234 233.386 376.883C234.15 378.532 234.456 380.356 234.272 382.164C234.087 383.972 233.42 385.696 232.339 387.157C231.258 388.618 229.804 389.761 228.129 390.466V390.487Z" fill="#FFC224"/>
<path d="M368.757 371.339C368.757 371.339 481.67 386.45 592.395 542.113C714.247 713.41 693.895 883.715 624.506 921.087C555.117 958.46 387.273 920.408 289.586 803.824L357.038 662.537L570.248 699.373" stroke="#0B0B0B" stroke-width="3.57665" stroke-linecap="round" stroke-linejoin="round"/>
<path d="M357.051 662.537L498.44 686.968L497.406 686.784L459.517 583.462L368.757 371.339C368.757 371.339 481.67 386.45 592.395 542.113C714.247 713.41 693.895 883.715 624.506 921.087C555.117 958.46 387.273 920.408 289.586 803.824L357.051 662.537Z" fill="#FF4A60"/>
<path d="M368.757 371.339C368.757 371.339 481.67 386.45 592.395 542.113C714.247 713.41 693.895 883.715 624.506 921.087C555.117 958.46 387.273 920.408 289.586 803.824L357.038 662.537L570.248 699.373" stroke="#0B0B0B" stroke-width="3.57665" stroke-linecap="round" stroke-linejoin="round"/>
<path d="M490.513 538.503C488.661 539.28 487.081 540.589 485.973 542.264C484.865 543.939 484.279 545.905 484.288 547.914C484.297 549.922 484.902 551.883 486.025 553.547C487.148 555.212 488.74 556.507 490.599 557.267C492.458 558.027 494.5 558.219 496.468 557.819C498.437 557.418 500.241 556.443 501.655 555.017C503.069 553.591 504.029 551.777 504.412 549.806C504.795 547.834 504.586 545.793 503.809 543.941C503.293 542.711 502.54 541.594 501.593 540.655C500.645 539.716 499.522 538.973 498.288 538.468C497.053 537.963 495.731 537.706 494.397 537.712C493.063 537.718 491.743 537.987 490.513 538.503V538.503Z" fill="#FFC224"/>
<path d="M476.645 453.418C474.796 454.197 473.22 455.506 472.114 457.18C471.009 458.854 470.425 460.819 470.436 462.825C470.446 464.831 471.051 466.789 472.174 468.451C473.297 470.113 474.887 471.406 476.744 472.165C478.601 472.924 480.641 473.116 482.607 472.716C484.573 472.316 486.376 471.343 487.789 469.918C489.202 468.494 490.161 466.683 490.545 464.714C490.929 462.745 490.721 460.707 489.948 458.856C489.433 457.624 488.681 456.505 487.733 455.564C486.786 454.624 485.661 453.879 484.425 453.374C483.189 452.869 481.866 452.613 480.531 452.62C479.196 452.628 477.875 452.899 476.645 453.418V453.418Z" fill="#FFC224"/>
<path d="M426.732 490.438C424.883 491.217 423.307 492.526 422.202 494.2C421.096 495.874 420.512 497.838 420.523 499.844C420.534 501.851 421.139 503.808 422.261 505.471C423.384 507.133 424.974 508.426 426.831 509.185C428.688 509.944 430.729 510.136 432.694 509.736C434.66 509.336 436.464 508.362 437.876 506.938C439.289 505.514 440.248 503.703 440.633 501.734C441.017 499.765 440.809 497.727 440.035 495.876C438.992 493.391 437.004 491.422 434.51 490.402C432.015 489.382 429.217 489.395 426.732 490.438Z" fill="#FFC224"/>
<path d="M424.394 419.811C422.543 420.592 420.966 421.904 419.861 423.582C418.756 425.26 418.173 427.227 418.187 429.236C418.2 431.245 418.809 433.204 419.937 434.867C421.064 436.53 422.659 437.821 424.52 438.577C426.381 439.333 428.424 439.52 430.392 439.114C432.359 438.709 434.162 437.729 435.573 436.299C436.983 434.869 437.938 433.052 438.316 431.079C438.694 429.106 438.479 427.066 437.697 425.215C436.649 422.735 434.659 420.773 432.164 419.759C429.67 418.746 426.875 418.765 424.394 419.811V419.811Z" fill="#FFC224"/>
<path d="M358.267 410.961C356.418 411.74 354.842 413.049 353.737 414.723C352.632 416.397 352.048 418.362 352.058 420.368C352.069 422.374 352.674 424.332 353.796 425.994C354.919 427.656 356.509 428.949 358.366 429.708C360.223 430.467 362.264 430.659 364.23 430.259C366.195 429.859 367.999 428.886 369.411 427.461C370.824 426.037 371.783 424.226 372.168 422.257C372.552 420.288 372.344 418.25 371.57 416.399C371.054 415.168 370.301 414.051 369.353 413.111C368.405 412.171 367.281 411.427 366.046 410.922C364.81 410.417 363.487 410.161 362.153 410.167C360.818 410.174 359.498 410.444 358.267 410.961V410.961Z" fill="#FFC224"/>
<path d="M406.143 390.766C404.297 391.548 402.262 391.765 400.293 391.391C398.324 391.016 396.51 390.067 395.08 388.663C393.65 387.259 392.668 385.462 392.259 383.5C391.849 381.538 392.03 379.499 392.779 377.64C398.278 379.496 404.64 381.895 411.696 384.92C411.222 386.224 410.484 387.416 409.529 388.422C408.573 389.428 407.42 390.226 406.143 390.766Z" fill="#FFC224"/>
<path d="M549.033 503.116C547.648 503.702 546.15 503.972 544.648 503.909C543.146 503.845 541.676 503.449 540.346 502.749C539.015 502.048 537.857 501.061 536.954 499.858C536.052 498.655 535.428 497.267 535.127 495.794C534.826 494.321 534.856 492.799 535.215 491.339C535.574 489.879 536.252 488.517 537.202 487.351C538.151 486.185 539.348 485.244 540.705 484.596C542.062 483.949 543.546 483.611 545.05 483.607C548.398 487.232 551.761 490.976 555.137 494.837C554.952 496.636 554.289 498.353 553.215 499.81C552.141 501.266 550.697 502.407 549.033 503.116V503.116Z" fill="#FFC224"/>
<path d="M342.586 81.9135C376.485 98.7713 396.449 138.904 392.207 181.551C386.368 240.391 335.109 284.126 335.109 284.126L331.519 186.242L325.891 183.244L342.586 81.9135Z" fill="#0B0B0B"/>
<path d="M355.841 200.647C348.719 200.613 341.766 202.812 335.958 206.935L336.033 186.481C336.156 154.057 312.921 127.445 284.474 127.343L241.65 127.186C213.168 127.077 189.771 153.52 189.649 185.944L189.404 252.342C189.282 284.766 212.515 311.378 240.963 311.48L265.733 311.569L265.597 347.344C265.592 354.41 268.384 361.192 273.362 366.206C278.341 371.221 285.102 374.061 292.169 374.106L309.163 374.174C316.23 374.179 323.012 371.388 328.027 366.409C333.043 361.431 335.884 354.669 335.931 347.602L336.081 307.184V304.928L336.23 264.51C336.23 263.694 336.162 262.899 336.088 262.11C340.43 265.231 345.448 267.281 350.733 268.093C356.019 268.905 361.421 268.456 366.5 266.782C371.579 265.108 376.19 262.258 379.957 258.463C383.724 254.668 386.54 250.036 388.177 244.945C389.813 239.854 390.222 234.449 389.371 229.169C388.52 223.89 386.434 218.887 383.281 214.568C380.128 210.249 375.999 206.736 371.23 204.317C366.461 201.898 361.188 200.64 355.841 200.647Z" fill="white" stroke="#0B0B0B" stroke-width="3.57665" stroke-linecap="round" stroke-linejoin="round"/>
<path d="M339.479 238.97C339.15 236.056 339.513 233.105 340.54 230.358C341.567 227.611 343.229 225.145 345.39 223.162C347.551 221.179 350.149 219.734 352.974 218.946C355.799 218.158 358.77 218.048 361.646 218.625" stroke="#0B0B0B" stroke-width="3.57665" stroke-linecap="round" stroke-linejoin="round"/>
<path d="M356.181 106.827C354.726 105.352 353.183 104.006 351.661 102.633L356.942 91.0771C340.459 77.9448 319.491 71.7865 298.524 73.9202C226.579 40.9319 201.816 92.9532 181.349 97.6027C164.185 101.491 155.981 96.4539 155.845 95.679C154.757 118.322 181.852 120.361 181.852 120.361L139.673 108.71L140.353 115.344C144.432 140.495 173.606 145.471 179.677 146.613L155.967 143.044C158.523 149.866 162.765 155.93 168.296 160.672C173.828 165.413 180.47 168.677 187.603 170.159C197.535 171.644 207.647 171.439 217.512 169.554C205.878 175.295 193.217 178.659 180.268 179.452C211.068 188.832 255.72 179.819 277.921 157.699C279.939 163.654 282.304 169.485 285.004 175.162C292.318 190.871 308.401 201.972 321.031 208.64L311.861 251.838C311.861 251.838 258.949 238.998 226.437 239.242C193.924 239.487 189.404 252.402 189.404 252.402C189.404 252.402 189.682 296.912 223.262 307.897C251.744 317.217 265.733 311.636 265.733 311.636C265.733 311.636 301.692 302.35 318.965 283.467C325.088 277.15 330.167 269.899 334.014 261.987L335.517 209.87C336.781 208.892 337.705 208.219 338.861 207.416C343.574 203.516 349.375 201.164 355.474 200.68C363.404 200.799 371.08 203.495 377.342 208.361C386.892 189.933 388.061 139.217 356.181 106.827Z" fill="#0B0B0B"/>
<path d="M255.918 216.157C255.959 206.253 260.31 198.239 265.639 198.252C270.968 198.266 275.271 206.321 275.23 216.232" stroke="#0B0B0B" stroke-width="3.57665" stroke-linecap="round" stroke-linejoin="round"/>
<path d="M195.555 213.309C195.589 204.853 199.301 198.008 203.855 198.029C208.409 198.049 212.073 204.914 212.012 213.371" stroke="#0B0B0B" stroke-width="3.57665" stroke-linecap="round" stroke-linejoin="round"/>
<path d="M235.438 234.021L218.342 223.519L233.412 198.137" stroke="#0B0B0B" stroke-width="3.57665" stroke-linecap="round" stroke-linejoin="round"/>
<path d="M281.402 194.596L264.85 187.907" stroke="#0B0B0B" stroke-width="3.57665" stroke-linecap="round" stroke-linejoin="round"/>
<path d="M210.66 188.682L194.781 190.966" stroke="#0B0B0B" stroke-width="3.57665" stroke-linecap="round" stroke-linejoin="round"/>
<path d="M217.015 257.889C217.007 259.84 217.385 261.774 218.125 263.579C218.865 265.385 219.953 267.027 221.328 268.412C222.703 269.797 224.337 270.897 226.137 271.651C227.937 272.404 229.868 272.795 231.819 272.803C233.771 272.81 235.704 272.432 237.51 271.692C239.316 270.952 240.958 269.864 242.343 268.489C243.727 267.114 244.828 265.48 245.581 263.68C246.335 261.88 246.726 259.949 246.733 257.998L217.015 257.889Z" fill="white"/>
<path d="M300.374 82.6551C300.825 82.6561 301.268 82.5375 301.658 82.3114C302.048 82.0852 302.371 81.7596 302.595 81.3678C302.818 80.9759 302.933 80.5319 302.929 80.0809C302.924 79.63 302.8 79.1883 302.569 78.8009C301.89 77.6997 286.255 51.9099 265.475 48.3073C265.145 48.243 264.805 48.2461 264.476 48.3164C264.148 48.3867 263.837 48.5227 263.562 48.7164C263.287 48.9101 263.054 49.1573 262.877 49.4433C262.7 49.7292 262.582 50.048 262.532 50.3805C262.413 51.0419 262.56 51.7236 262.943 52.2764C263.325 52.8292 263.91 53.2083 264.571 53.3306C283.04 56.5322 298.008 81.2004 298.157 81.4179C298.386 81.8002 298.711 82.1157 299.1 82.3328C299.489 82.5499 299.928 82.6611 300.374 82.6551V82.6551Z" fill="#0B0B0B"/>
<path d="M355.429 385.63L245.998 384.944C231.943 384.856 220.62 373.39 220.709 359.335L220.793 345.91C220.881 331.855 232.346 320.532 246.401 320.62L355.832 321.306C369.888 321.394 381.21 332.86 381.122 346.915L381.038 360.34C380.95 374.395 369.485 385.718 355.429 385.63Z" fill="#FF4A60" stroke="#0B0B0B" stroke-width="3.57665" stroke-miterlimit="10"/>
</g>
</svg>
